<svg width="260" height="276" viewBox="0 0 260 276" fill="none" xmlns="http://www.w3.org/2000/svg">
<path d="M30.2924 131.725L178.988 39.4528C178.988 39.4528 59.7305 227.868 57.7308 227.056C57.7308 227.056 39.1872 157.239 30.2924 131.725Z" fill="white" stroke="#36B37E" stroke-width="1.43899" stroke-miterlimit="10" stroke-linejoin="round"/>
<path d="M178.988 39.4526L183.471 45.6228C183.471 45.6228 188.303 240.183 187.999 242.079C187.695 243.975 190.678 245.808 185.995 247.012C181.312 248.216 98.3845 235.184 77.991 231.093C57.7309 227.056 57.7309 227.056 57.7309 227.056L178.988 39.4526Z" fill="#36B37E"/>
<path d="M86.7361 120.485L123.14 218.215L185.45 184.506L182.954 82.0683L86.7361 120.485Z" fill="#C5E9DA"/>
<mask id="mask0_34_2187" style="mask-type:alpha" maskUnits="userSpaceOnUse" x="87" y="82" width="99" height="137">
<path d="M87.2161 121.19L123.62 218.92L185.93 185.211L183.434 82.7734L87.2161 121.19Z" fill="#C5E9DA"/>
</mask>
<g mask="url(#mask0_34_2187)">
<path d="M176.527 180.561L159.871 177.211L159.487 198.8L141.573 195.871L140.431 219.327L159.017 221.752L176.694 224.118L193.463 226.426L192.779 204.404L176.494 201.671L176.527 180.561Z" fill="#36B37E"/>
<path d="M142.439 173.858L159.871 177.212L160.221 156.852L143.46 152.994L142.439 173.858Z" fill="#36B37E"/>
<path d="M124.208 170.179L122.671 192.697L141.573 195.872L142.44 173.858L124.208 170.179Z" fill="#36B37E"/>
<path d="M124.208 170.179L125.658 149.023L107.002 144.861L104.935 166.387L124.208 170.179Z" fill="#36B37E"/>
<path d="M104.935 166.388L84.8087 162.405L81.7965 185.878L78.5885 210.979L100.378 213.928L120.992 216.711L122.671 192.698L102.727 189.41L104.935 166.388Z" fill="#36B37E"/>
<path d="M222.013 189.411L220.672 170.538L206.607 167.309L191.821 163.943L191.334 145.262L176.39 141.52L160.725 137.642L160.221 156.852L176.448 160.493L176.527 180.562L192.384 183.586L192.779 204.405L208.344 207L207.465 186.607L222.013 189.411Z" fill="#36B37E"/>
<path d="M204.982 131.546L190.867 127.676L191.334 145.261L205.824 148.974L204.982 131.546Z" fill="#36B37E"/>
<path d="M144.26 133.437L160.725 137.641L161.037 119.285L145.135 114.844L128.378 110.211L127.074 129.096L125.658 149.023L143.46 152.993L144.26 133.437Z" fill="#36B37E"/>
<path d="M109.035 124.563L90.1955 119.705L87.5458 140.374L107.002 144.861L109.035 124.563Z" fill="#36B37E"/>
<path d="M66.915 135.72L63.3737 158.201L84.8087 162.405L87.5459 140.374L66.915 135.72Z" fill="#36B37E"/>
</g>
<path d="M86.7359 120.485L140.509 98.9956L101.751 160.755L86.7359 120.485Z" fill="#172B4D"/>
<path d="M57.3726 114.769L45.728 183.194" stroke="#36B37E" stroke-width="1.43899" stroke-miterlimit="10" stroke-linejoin="round"/>
<path d="M54.9437 129.159L50.2943 119.194L57.3726 114.769L54.9437 129.159Z" fill="#172B4D"/>
<path d="M150.728 57.0178L165.11 60.9965" stroke="#36B37E" stroke-width="1.43899" stroke-miterlimit="10" stroke-linejoin="round"/>
<path d="M97.022 150.603L132.48 240.338" stroke="white" stroke-width="1.43899" stroke-miterlimit="10" stroke-linejoin="round"/>
</svg>
